STARTFONT 2.1
FONT -sun-chevara-medium-r-normal--14-140-75-75-p-123-adobe-fontspecific
SIZE 14 75 75
FONTBOUNDINGBOX 30 19 -4 -4

STARTPROPERTIES 28
FOUNDRY "sun"
FAMILY_NAME "chevara"
WEIGHT_NAME "medium"
SLANT "r"
SETWIDTH_NAME "normal"
ADD_STYLE_NAME ""
PIXEL_SIZE 15
POINT_SIZE 140
RESOLUTION_X 75
RESOLUTION_Y 75
SPACING "p"
AVERAGE_WIDTH 123
CHARSET_REGISTRY "adobe"
CHARSET_ENCODING "fontspecific"
COPYRIGHT "© 1999 Sun Microsystems, Inc."
RAW_PIXELSIZE 1000
RAW_POINTSIZE 964
RAW_ASCENT 1047
RAW_DESCENT 285
RAW_AVERAGE_WIDTH 8445
FACE_NAME "ChevaraNormal"
_XMBDFED_INFO "Edited with xmbdfed 2.4."
WEIGHT 10
X_HEIGHT -1
QUAD_WIDTH 12
DEFAULT_CHAR 4
FONT_DESCENT 4
FONT_ASCENT 15
ENDPROPERTIES

CHARS 195

STARTCHAR char32
ENCODING 32
SWIDTH 49 0
DWIDTH 8 0
BBX 0 0 0 0
BITMAP
ENDCHAR

STARTCHAR char33
ENCODING 33
SWIDTH 36 0
DWIDTH 6 0
BBX 4 10 2 0
BITMAP
F0
F0
90
70
60
20
20
60
90
70
ENDCHAR

STARTCHAR char34
ENCODING 34
SWIDTH 49 0
DWIDTH 8 0
BBX 6 4 2 6
BITMAP
FC
BC
64
08
ENDCHAR

STARTCHAR char35
ENCODING 35
SWIDTH 55 0
DWIDTH 9 0
BBX 8 11 0 0
BITMAP
12
12
14
7F
24
24
24
FE
24
28
28
ENDCHAR

STARTCHAR char36
ENCODING 36
SWIDTH 36 0
DWIDTH 16 0
BBX 12 14 4 -2
BITMAP
0500
1F20
65A0
C560
F520
FFA0
BFE0
7DF0
47D0
4530
7530
CBE0
0500
0500
ENDCHAR

STARTCHAR char37
ENCODING 37
SWIDTH 10 0
DWIDTH 22 0
BBX 19 10 4 0
BITMAP
7E0800
E60800
E71000
E72380
E624E0
664C60
388C60
010C60
030AA0
0207C0
ENDCHAR

STARTCHAR char38
ENCODING 38
SWIDTH 36 0
DWIDTH 16 0
BBX 13 10 4 0
BITMAP
1F80
1880
1D00
1F78
1F50
6B60
E5C0
E380
92C0
7DF0
ENDCHAR

STARTCHAR char39
ENCODING 39
SWIDTH 24 0
DWIDTH 4 0
BBX 3 5 1 6
BITMAP
20
40
A0
E0
40
ENDCHAR

STARTCHAR char40
ENCODING 40
SWIDTH 43 0
DWIDTH 7 0
BBX 5 11 2 0
BITMAP
08
30
50
60
E0
E0
E0
A0
60
30
18
ENDCHAR

STARTCHAR char41
ENCODING 41
SWIDTH 43 0
DWIDTH 7 0
BBX 5 11 1 0
BITMAP
80
60
30
38
38
38
38
38
28
30
60
ENDCHAR

STARTCHAR char42
ENCODING 42
SWIDTH 30 0
DWIDTH 5 0
BBX 5 4 1 6
BITMAP
20
F8
30
50
ENDCHAR

STARTCHAR char43
ENCODING 43
SWIDTH 5 0
DWIDTH 11 0
BBX 9 8 2 0
BITMAP
0800
0800
0800
FF80
0800
0800
0800
0800
ENDCHAR

STARTCHAR char44
ENCODING 44
SWIDTH 30 0
DWIDTH 5 0
BBX 3 5 1 -2
BITMAP
40
E0
E0
20
C0
ENDCHAR

STARTCHAR char45
ENCODING 45
SWIDTH 43 0
DWIDTH 7 0
BBX 6 1 2 4
BITMAP
FC
ENDCHAR

STARTCHAR char46
ENCODING 46
SWIDTH 30 0
DWIDTH 5 0
BBX 4 3 1 0
BITMAP
60
E0
60
ENDCHAR

STARTCHAR char47
ENCODING 47
SWIDTH 55 0
DWIDTH 9 0
BBX 7 10 2 0
BITMAP
02
02
04
08
10
10
20
40
80
80
ENDCHAR

STARTCHAR char48
ENCODING 48
SWIDTH 29 0
DWIDTH 15 0
BBX 12 10 3 0
BITMAP
1FC0
38E0
70E0
F0F0
F0F0
F0D0
B0F0
50A0
38E0
1F80
ENDCHAR

STARTCHAR char49
ENCODING 49
SWIDTH 61 0
DWIDTH 10 0
BBX 8 11 2 0
BITMAP
04
0C
7C
3C
3C
3C
3C
3C
3C
24
FF
ENDCHAR

STARTCHAR char50
ENCODING 50
SWIDTH 17 0
DWIDTH 13 0
BBX 11 10 3 0
BITMAP
3F80
C3C0
F3C0
F3C0
7380
0E00
1820
7FC0
7FC0
FFC0
ENDCHAR

STARTCHAR char51
ENCODING 51
SWIDTH 23 0
DWIDTH 14 0
BBX 11 10 3 0
BITMAP
7F80
E3C0
E3C0
4380
1F80
03C0
E3E0
A2E0
E140
7F80
ENDCHAR

STARTCHAR char52
ENCODING 52
SWIDTH 23 0
DWIDTH 14 0
BBX 11 11 3 0
BITMAP
0080
0180
0380
0F80
1780
2780
4780
8480
FFE0
0480
1FE0
ENDCHAR

STARTCHAR char53
ENCODING 53
SWIDTH 17 0
DWIDTH 13 0
BBX 11 11 3 0
BITMAP
6020
7FC0
8180
FF00
9E00
E380
03C0
E2C0
A1C0
E340
3F80
ENDCHAR

STARTCHAR char54
ENCODING 54
SWIDTH 23 0
DWIDTH 14 0
BBX 12 10 3 0
BITMAP
3FE0
71E0
70E0
FFC0
F0E0
F0E0
B0F0
50D0
38A0
1FC0
ENDCHAR

STARTCHAR char55
ENCODING 55
SWIDTH 17 0
DWIDTH 13 0
BBX 11 10 3 0
BITMAP
FFE0
FFC0
FF80
8100
8300
0600
0A00
1E00
2400
1C00
ENDCHAR

STARTCHAR char56
ENCODING 56
SWIDTH 23 0
DWIDTH 14 0
BBX 11 10 3 0
BITMAP
3F80
7060
FC20
7F40
7FC0
5CE0
8360
80A0
4060
3FC0
ENDCHAR

STARTCHAR char57
ENCODING 57
SWIDTH 23 0
DWIDTH 14 0
BBX 11 10 3 0
BITMAP
3F80
71C0
F1E0
F1E0
71E0
3BE0
1DA0
7960
49C0
3F80
ENDCHAR

STARTCHAR char58
ENCODING 58
SWIDTH 36 0
DWIDTH 6 0
BBX 4 7 2 0
BITMAP
70
B0
60
00
60
90
70
ENDCHAR

STARTCHAR char59
ENCODING 59
SWIDTH 36 0
DWIDTH 6 0
BBX 4 9 2 -2
BITMAP
F0
B0
60
00
60
F0
50
30
40
ENDCHAR

STARTCHAR char60
ENCODING 60
SWIDTH 61 0
DWIDTH 10 0
BBX 7 7 1 0
BITMAP
06
18
E0
80
60
1C
02
ENDCHAR

STARTCHAR char61
ENCODING 61
SWIDTH 5 0
DWIDTH 11 0
BBX 9 4 2 2
BITMAP
FF80
0000
0000
FF80
ENDCHAR

STARTCHAR char62
ENCODING 62
SWIDTH 61 0
DWIDTH 10 0
BBX 7 7 1 0
BITMAP
C0
30
0C
02
1C
60
80
ENDCHAR

STARTCHAR char63
ENCODING 63
SWIDTH 61 0
DWIDTH 10 0
BBX 8 10 2 0
BITMAP
7E
E7
EF
7F
1E
1C
10
30
28
38
ENDCHAR

STARTCHAR char64
ENCODING 64
SWIDTH 36 0
DWIDTH 16 0
BBX 11 11 2 0
BITMAP
0F00
3180
4040
4FA0
9120
A120
A340
B240
5F80
20C0
1F00
ENDCHAR

STARTCHAR char65
ENCODING 65
SWIDTH 36 0
DWIDTH 16 0
BBX 15 10 3 0
BITMAP
0100
0300
0780
0BC0
0AC0
1160
3FE0
20F0
60F0
F9FC
ENDCHAR

STARTCHAR char66
ENCODING 66
SWIDTH 36 0
DWIDTH 16 0
BBX 13 10 3 0
BITMAP
FFF0
2448
3C78
3C70
3FF0
3C70
3C78
3C78
3C48
3FF0
ENDCHAR

STARTCHAR char67
ENCODING 67
SWIDTH 29 0
DWIDTH 15 0
BBX 12 10 3 0
BITMAP
1FF0
3830
7810
F010
F000
F000
B010
5810
2C20
1FC0
ENDCHAR

STARTCHAR char68
ENCODING 68
SWIDTH 42 0
DWIDTH 17 0
BBX 15 10 3 0
BITMAP
FFF8
3C3C
3C3E
3C3E
3C3E
3C3E
3C3E
3C34
2428
3FF0
ENDCHAR

STARTCHAR char69
ENCODING 69
SWIDTH 36 0
DWIDTH 16 0
BBX 13 10 3 0
BITMAP
FFF8
2418
3C08
3C40
3FC0
3CC0
3C48
3C08
3C38
FFF8
ENDCHAR

STARTCHAR char70
ENCODING 70
SWIDTH 29 0
DWIDTH 15 0
BBX 13 10 3 0
BITMAP
3FF8
3C18
3C08
3C40
3FC0
3CC0
3C40
3C00
3C00
FF00
ENDCHAR

STARTCHAR char71
ENCODING 71
SWIDTH 42 0
DWIDTH 17 0
BBX 16 10 3 0
BITMAP
1FF0
3C30
7810
F800
F800
B8FF
7878
4878
3448
0FFC
ENDCHAR

STARTCHAR char72
ENCODING 72
SWIDTH 54 0
DWIDTH 19 0
BBX 17 10 4 0
BITMAP
3C3F80
242400
3C3C00
3C3C00
3FFC00
3C3C00
3C3C00
3C3C00
2C2400
FFFF00
ENDCHAR

STARTCHAR char73
ENCODING 73
SWIDTH 61 0
DWIDTH 10 0
BBX 8 10 2 0
BITMAP
3F
3C
3C
3C
3C
3C
3C
3C
3C
FE
ENDCHAR

STARTCHAR char74
ENCODING 74
SWIDTH 11 0
DWIDTH 12 0
BBX 11 10 2 0
BITMAP
07E0
0780
0780
0780
0780
0780
7780
9680
7700
7F00
ENDCHAR

STARTCHAR char75
ENCODING 75
SWIDTH 54 0
DWIDTH 19 0
BBX 17 10 4 0
BITMAP
FC7F80
2C3000
3C2000
3C4000
3DC000
3F6000
3CB000
3C7800
2C4C00
FFFF00
ENDCHAR

STARTCHAR char76
ENCODING 76
SWIDTH 29 0
DWIDTH 15 0
BBX 13 10 3 0
BITMAP
FF00
2400
3C00
3C00
3C00
3C00
3C08
3C08
2438
3FF8
ENDCHAR

STARTCHAR char77
ENCODING 77
SWIDTH 10 0
DWIDTH 22 0
BBX 19 10 4 0
BITMAP
FC07E0
260A80
3E0B80
2F1780
279780
25A780
23C780
224780
218780
F88FC0
ENDCHAR

STARTCHAR char78
ENCODING 78
SWIDTH 42 0
DWIDTH 17 0
BBX 15 10 3 0
BITMAP
FE3E
3B08
2F88
27C8
23E8
2178
20B8
2058
2028
F818
ENDCHAR

STARTCHAR char79
ENCODING 79
SWIDTH 42 0
DWIDTH 17 0
BBX 14 10 4 0
BITMAP
3FF0
7878
F078
F07C
F07C
F07C
B07C
5868
2850
1FE0
ENDCHAR

STARTCHAR char80
ENCODING 80
SWIDTH 36 0
DWIDTH 16 0
BBX 14 10 3 0
BITMAP
FFF8
2424
3C3C
3C3C
3C38
3FF0
3C00
3C00
2400
FF80
ENDCHAR

STARTCHAR char81
ENCODING 81
SWIDTH 42 0
DWIDTH 17 0
BBX 15 11 4 -1
BITMAP
3FF0
7878
F078
F07C
F07C
F074
B1FC
5B68
2892
1FFC
0038
ENDCHAR

STARTCHAR char82
ENCODING 82
SWIDTH 36 0
DWIDTH 16 0
BBX 14 10 3 0
BITMAP
3FF0
2478
3C78
3DF8
3EF0
3D60
3CE0
3CF0
24B0
FE7C
ENDCHAR

STARTCHAR char83
ENCODING 83
SWIDTH 36 0
DWIDTH 16 0
BBX 12 10 4 0
BITMAP
7FA0
C060
E020
FF20
FFE0
7870
47B0
4050
6030
DFE0
ENDCHAR

STARTCHAR char84
ENCODING 84
SWIDTH 29 0
DWIDTH 15 0
BBX 13 10 3 0
BITMAP
FFF8
C918
8F08
8F08
0F00
0F00
0F00
0F00
0900
3F80
ENDCHAR

STARTCHAR char85
ENCODING 85
SWIDTH 36 0
DWIDTH 16 0
BBX 14 10 3 0
BITMAP
FF3C
2408
3C08
3C08
3C08
3C08
3C08
2C08
1430
0FC0
ENDCHAR

STARTCHAR char86
ENCODING 86
SWIDTH 36 0
DWIDTH 16 0
BBX 15 10 3 0
BITMAP
7E1C
3C18
1E10
1E10
0F20
07A0
05C0
0280
0300
0100
ENDCHAR

STARTCHAR char87
ENCODING 87
SWIDTH 22 0
DWIDTH 24 0
BBX 22 10 4 0
BITMAP
FFFCFC
1E2420
1E1E20
0F3E20
0F2F40
07CB40
058780
038480
028300
010300
ENDCHAR

STARTCHAR char88
ENCODING 88
SWIDTH 42 0
DWIDTH 17 0
BBX 15 10 3 0
BITMAP
7F78
2620
1F60
0F80
07C0
02E0
0560
08F0
10B8
7C7E
ENDCHAR

STARTCHAR char89
ENCODING 89
SWIDTH 36 0
DWIDTH 16 0
BBX 15 10 3 0
BITMAP
7F7C
2418
1E10
1F20
0FC0
0780
0780
0780
0780
1FC0
ENDCHAR

STARTCHAR char90
ENCODING 90
SWIDTH 23 0
DWIDTH 14 0
BBX 11 10 3 0
BITMAP
FFE0
E260
C7C0
0780
0F00
1B00
3620
7C60
88A0
FFE0
ENDCHAR

STARTCHAR char91
ENCODING 91
SWIDTH 49 0
DWIDTH 8 0
BBX 5 10 3 0
BITMAP
F8
E0
E0
E0
E0
E0
E0
E0
A0
F8
ENDCHAR

STARTCHAR char92
ENCODING 92
SWIDTH 24 0
DWIDTH 4 0
BBX 4 11 0 0
BITMAP
80
80
80
40
40
40
20
20
20
10
10
ENDCHAR

STARTCHAR char93
ENCODING 93
SWIDTH 49 0
DWIDTH 8 0
BBX 3 10 3 0
BITMAP
E0
E0
E0
E0
E0
E0
E0
E0
A0
E0
ENDCHAR

STARTCHAR char94
ENCODING 94
SWIDTH 0 0
DWIDTH 0 0
BBX 5 3 -2 11
BITMAP
70
B0
B8
ENDCHAR

STARTCHAR char95
ENCODING 95
SWIDTH 55 0
DWIDTH 9 0
BBX 8 1 0 -2
BITMAP
FF
ENDCHAR

STARTCHAR char96
ENCODING 96
SWIDTH 0 0
DWIDTH 0 0
BBX 3 3 -2 9
BITMAP
C0
40
20
ENDCHAR

STARTCHAR char97
ENCODING 97
SWIDTH 23 0
DWIDTH 14 0
BBX 13 9 2 0
BITMAP
0200
0600
0700
0D80
0B80
12C0
3FC0
2120
FBF8
ENDCHAR

STARTCHAR char98
ENCODING 98
SWIDTH 23 0
DWIDTH 14 0
BBX 11 9 3 0
BITMAP
FF80
39C0
39E0
7940
7F80
79C0
79A0
7960
7FC0
ENDCHAR

STARTCHAR char99
ENCODING 99
SWIDTH 11 0
DWIDTH 12 0
BBX 10 9 3 0
BITMAP
1E40
71C0
F040
E040
E000
E000
A040
7080
3F00
ENDCHAR

STARTCHAR char100
ENCODING 100
SWIDTH 29 0
DWIDTH 15 0
BBX 12 9 3 0
BITMAP
FF80
38E0
38E0
38F0
38F0
38F0
38D0
28A0
FFC0
ENDCHAR

STARTCHAR char101
ENCODING 101
SWIDTH 17 0
DWIDTH 13 0
BBX 10 9 3 0
BITMAP
FFC0
78C0
7840
7940
7F00
7900
7840
78C0
7FC0
ENDCHAR

STARTCHAR char102
ENCODING 102
SWIDTH 11 0
DWIDTH 12 0
BBX 11 9 2 0
BITMAP
FFE0
3860
3820
38A0
3F80
3880
3800
2800
3E00
ENDCHAR

STARTCHAR char103
ENCODING 103
SWIDTH 23 0
DWIDTH 14 0
BBX 13 9 3 0
BITMAP
1F40
30C0
7040
B040
F3F8
F1E0
B1E0
5920
3FE0
ENDCHAR

STARTCHAR char104
ENCODING 104
SWIDTH 36 0
DWIDTH 16 0
BBX 14 9 3 0
BITMAP
FFFC
38F0
38F0
38F0
3FF0
38F0
38F0
2890
FFFC
ENDCHAR

STARTCHAR char105
ENCODING 105
SWIDTH 55 0
DWIDTH 9 0
BBX 7 9 2 0
BITMAP
FE
78
78
78
78
78
78
48
FE
ENDCHAR

STARTCHAR char106
ENCODING 106
SWIDTH 61 0
DWIDTH 10 0
BBX 9 9 2 0
BITMAP
3F80
1E00
1E00
1E00
1E00
1E00
FE00
FA00
7C00
ENDCHAR

STARTCHAR char107
ENCODING 107
SWIDTH 36 0
DWIDTH 16 0
BBX 15 9 3 0
BITMAP
FEFC
3860
38C0
3880
3F80
3AC0
3960
28B0
FFF8
ENDCHAR

STARTCHAR char108
ENCODING 108
SWIDTH 17 0
DWIDTH 13 0
BBX 10 9 3 0
BITMAP
FC00
7800
7800
7800
7800
7800
6840
58C0
FFC0
ENDCHAR

STARTCHAR char109
ENCODING 109
SWIDTH 48 0
DWIDTH 18 0
BBX 16 9 3 0
BITMAP
FC1F
3C3C
3E2C
2E5C
2B5C
255C
229C
231C
713E
ENDCHAR

STARTCHAR char110
ENCODING 110
SWIDTH 23 0
DWIDTH 14 0
BBX 12 9 3 0
BITMAP
F8F0
7C60
7E20
4F20
45A0
42E0
4160
40A0
6060
ENDCHAR

STARTCHAR char111
ENCODING 111
SWIDTH 23 0
DWIDTH 14 0
BBX 12 9 3 0
BITMAP
0300
3DC0
70E0
F0F0
F0D0
F0F0
90B0
68E0
1F80
ENDCHAR

STARTCHAR char112
ENCODING 112
SWIDTH 23 0
DWIDTH 14 0
BBX 11 9 3 0
BITMAP
FF80
78C0
78E0
78A0
48E0
7FC0
7800
4800
FE00
ENDCHAR

STARTCHAR char113
ENCODING 113
SWIDTH 23 0
DWIDTH 14 0
BBX 13 10 3 -1
BITMAP
1F00
31C0
70E0
F0F0
F0D0
B0F0
57B0
69E8
1FF0
0060
ENDCHAR

STARTCHAR char114
ENCODING 114
SWIDTH 23 0
DWIDTH 14 0
BBX 12 9 3 0
BITMAP
FF80
79E0
79E0
7B60
7C80
7B80
7BC0
4A40
7DF0
ENDCHAR

STARTCHAR char115
ENCODING 115
SWIDTH 17 0
DWIDTH 13 0
BBX 11 9 3 0
BITMAP
3E40
41C0
C040
FE40
5FC0
3E60
41A0
E060
5F80
ENDCHAR

STARTCHAR char116
ENCODING 116
SWIDTH 17 0
DWIDTH 13 0
BBX 11 9 2 0
BITMAP
FFE0
EE60
CE20
8E20
0E00
0E00
0E00
0E00
0F80
ENDCHAR

STARTCHAR char117
ENCODING 117
SWIDTH 23 0
DWIDTH 14 0
BBX 12 9 3 0
BITMAP
FCF0
7060
7040
7040
7040
7040
5040
30C0
1F00
ENDCHAR

STARTCHAR char118
ENCODING 118
SWIDTH 23 0
DWIDTH 14 0
BBX 13 9 2 0
BITMAP
FEE0
3C50
1C20
1620
0E40
0B80
0500
0300
0200
ENDCHAR

STARTCHAR char119
ENCODING 119
SWIDTH 60 0
DWIDTH 20 0
BBX 18 9 3 0
BITMAP
FDFBC0
38B180
1C7100
14B900
0EA900
0F9E00
091400
060C00
020800
ENDCHAR

STARTCHAR char120
ENCODING 120
SWIDTH 23 0
DWIDTH 14 0
BBX 13 9 2 0
BITMAP
7EF8
2C60
1EC0
0B00
0580
02C0
0DC0
1120
FDF8
ENDCHAR

STARTCHAR char121
ENCODING 121
SWIDTH 23 0
DWIDTH 14 0
BBX 13 9 2 0
BITMAP
FEF8
3C60
1C40
1680
0B80
0700
0700
0500
1FC0
ENDCHAR

STARTCHAR char122
ENCODING 122
SWIDTH 11 0
DWIDTH 12 0
BBX 10 9 2 0
BITMAP
7FC0
6380
4780
4D00
1A00
1E40
3440
48C0
FFC0
ENDCHAR

STARTCHAR char123
ENCODING 123
SWIDTH 30 0
DWIDTH 5 0
BBX 3 13 1 -3
BITMAP
60
40
40
40
40
80
80
40
40
40
40
40
20
ENDCHAR

STARTCHAR char124
ENCODING 124
SWIDTH 24 0
DWIDTH 4 0
BBX 1 11 1 0
BITMAP
80
80
80
80
80
80
80
80
80
80
80
ENDCHAR

STARTCHAR char125
ENCODING 125
SWIDTH 30 0
DWIDTH 5 0
BBX 3 13 1 -3
BITMAP
C0
40
40
40
40
20
20
40
40
40
40
40
80
ENDCHAR

STARTCHAR char126
ENCODING 126
SWIDTH 0 0
DWIDTH 0 0
BBX 9 3 -4 11
BITMAP
7080
FF00
8E00
ENDCHAR

STARTCHAR char128
ENCODING 128
SWIDTH 29 0
DWIDTH 15 0
BBX 13 10 2 0
BITMAP
0FF8
1C18
3C08
FFE8
7800
7800
5808
2C08
1610
0FE0
ENDCHAR

STARTCHAR char130
ENCODING 130
SWIDTH 30 0
DWIDTH 5 0
BBX 3 5 1 -2
BITMAP
40
E0
E0
20
C0
ENDCHAR

STARTCHAR char131
ENCODING 131
SWIDTH 0 0
DWIDTH 0 0
BBX 5 3 -2 11
BITMAP
70
B0
B8
ENDCHAR

STARTCHAR char132
ENCODING 132
SWIDTH 49 0
DWIDTH 8 0
BBX 6 4 2 -2
BITMAP
EC
EC
64
C8
ENDCHAR

STARTCHAR char133
ENCODING 133
SWIDTH 36 0
DWIDTH 16 0
BBX 12 2 1 0
BITMAP
C630
C630
ENDCHAR

STARTCHAR char134
ENCODING 134
SWIDTH 61 0
DWIDTH 10 0
BBX 8 7 2 2
BITMAP
3C
19
CB
FF
C9
98
3C
ENDCHAR

STARTCHAR char136
ENCODING 136
SWIDTH 0 0
DWIDTH 0 0
BBX 5 3 -2 9
BITMAP
70
B0
B0
ENDCHAR

STARTCHAR char139
ENCODING 139
SWIDTH 30 0
DWIDTH 5 0
BBX 3 4 1 2
BITMAP
60
C0
C0
60
ENDCHAR

STARTCHAR char140
ENCODING 140
SWIDTH 29 0
DWIDTH 25 0
BBX 21 10 5 0
BITMAP
1FFFF8
682438
783C08
F83C80
F03F80
F03C80
B83C88
583C18
283C78
1FFFF8
ENDCHAR

STARTCHAR char145
ENCODING 145
SWIDTH 24 0
DWIDTH 4 0
BBX 3 4 1 6
BITMAP
40
A0
E0
40
ENDCHAR

STARTCHAR char146
ENCODING 146
SWIDTH 24 0
DWIDTH 4 0
BBX 3 3 1 7
BITMAP
E0
E0
20
ENDCHAR

STARTCHAR char147
ENCODING 147
SWIDTH 49 0
DWIDTH 8 0
BBX 6 4 2 6
BITMAP
88
F4
FC
4C
ENDCHAR

STARTCHAR char148
ENCODING 148
SWIDTH 49 0
DWIDTH 8 0
BBX 6 4 2 6
BITMAP
FC
BC
64
08
ENDCHAR

STARTCHAR char149
ENCODING 149
SWIDTH 30 0
DWIDTH 5 0
BBX 4 4 0 3
BITMAP
60
F0
F0
60
ENDCHAR

STARTCHAR char150
ENCODING 150
SWIDTH 29 0
DWIDTH 15 0
BBX 12 1 3 4
BITMAP
FFF0
ENDCHAR

STARTCHAR char151
ENCODING 151
SWIDTH 5 0
DWIDTH 11 0
BBX 9 1 2 4
BITMAP
FF80
ENDCHAR

STARTCHAR char152
ENCODING 152
SWIDTH 0 0
DWIDTH 0 0
BBX 8 3 -4 9
BITMAP
32
7A
4C
ENDCHAR

STARTCHAR char153
ENCODING 153
SWIDTH 10 0
DWIDTH 22 0
BBX 19 9 4 6
BITMAP
FF60E0
916180
107180
105180
105A80
104A80
104C80
104C80
38E5E0
ENDCHAR

STARTCHAR char155
ENCODING 155
SWIDTH 30 0
DWIDTH 5 0
BBX 3 4 1 2
BITMAP
C0
60
60
80
ENDCHAR

STARTCHAR char156
ENCODING 156
SWIDTH 4 0
DWIDTH 21 0
BBX 17 9 4 0
BITMAP
1FE000
38FF80
70F080
F0F280
F0FE00
F0F200
90B080
687180
1FFF80
ENDCHAR

STARTCHAR char159
ENCODING 159
SWIDTH 36 0
DWIDTH 16 0
BBX 15 14 3 0
BITMAP
0440
0EC0
04C0
0000
7F7C
2618
1E10
1F20
0FC0
0780
0780
0780
0780
1FC0
ENDCHAR

STARTCHAR char160
ENCODING 160
SWIDTH 17 0
DWIDTH 13 0
BBX 0 0 0 0
BITMAP
ENDCHAR

STARTCHAR char161
ENCODING 161
SWIDTH 36 0
DWIDTH 6 0
BBX 4 10 1 0
BITMAP
70
F0
20
20
20
60
70
70
F0
F0
ENDCHAR

STARTCHAR char162
ENCODING 162
SWIDTH 11 0
DWIDTH 12 0
BBX 10 11 3 -1
BITMAP
0400
1EC0
7540
E4C0
E440
E440
E400
A440
6480
3F00
0400
ENDCHAR

STARTCHAR char163
ENCODING 163
SWIDTH 29 0
DWIDTH 15 0
BBX 12 10 3 0
BITMAP
1FF0
3C70
3C70
3C20
3C00
DFC0
3C10
3C30
3CF0
FFF0
ENDCHAR

STARTCHAR char164
ENCODING 164
SWIDTH 0 0
DWIDTH 0 0
BBX 4 3 -1 11
BITMAP
60
C0
80
ENDCHAR

STARTCHAR char165
ENCODING 165
SWIDTH 0 0
DWIDTH 0 0
BBX 6 3 -3 11
BITMAP
64
78
30
ENDCHAR

STARTCHAR char167
ENCODING 167
SWIDTH 17 0
DWIDTH 13 0
BBX 10 15 3 -4
BITMAP
1C80
6380
C080
FC00
FF00
7080
4F40
C0C0
FCC0
8780
78C0
8740
C0C0
B080
CF00
ENDCHAR

STARTCHAR char168
ENCODING 168
SWIDTH 0 0
DWIDTH 0 0
BBX 6 3 -3 9
BITMAP
08
78
7C
ENDCHAR

STARTCHAR char169
ENCODING 169
SWIDTH 54 0
DWIDTH 19 0
BBX 16 15 4 0
BITMAP
07E0
0818
300C
21E6
4622
8421
8801
8801
8801
8C01
4432
43C2
2004
1818
07E0
ENDCHAR

STARTCHAR char170
ENCODING 170
SWIDTH 0 0
DWIDTH 0 0
BBX 6 3 -3 11
BITMAP
48
FC
48
ENDCHAR

STARTCHAR char171
ENCODING 171
SWIDTH 43 0
DWIDTH 7 0
BBX 6 5 2 2
BITMAP
48
90
90
50
48
ENDCHAR

STARTCHAR char172
ENCODING 172
SWIDTH 48 0
DWIDTH 18 0
BBX 15 6 3 0
BITMAP
FFFE
0002
0002
0002
0002
0002
ENDCHAR

STARTCHAR char174
ENCODING 174
SWIDTH 54 0
DWIDTH 19 0
BBX 16 15 4 0
BITMAP
07E0
0818
300C
27C6
4222
C221
8261
8381
82C1
8261
4262
4F3A
2004
1818
07E0
ENDCHAR

STARTCHAR char176
ENCODING 176
SWIDTH 61 0
DWIDTH 10 0
BBX 6 7 3 8
BITMAP
78
84
84
84
84
48
30
ENDCHAR

STARTCHAR char177
ENCODING 177
SWIDTH 17 0
DWIDTH 13 0
BBX 12 14 2 0
BITMAP
0200
0200
0200
0200
0200
FFF0
0200
0200
0200
0200
0200
0000
0000
FFF0
ENDCHAR

STARTCHAR char180
ENCODING 180
SWIDTH 0 0
DWIDTH 0 0
BBX 2 3 0 9
BITMAP
C0
80
80
ENDCHAR

STARTCHAR char182
ENCODING 182
SWIDTH 61 0
DWIDTH 10 0
BBX 7 12 1 -2
BITMAP
3E
64
E4
E4
64
24
24
24
24
24
24
24
ENDCHAR

STARTCHAR char183
ENCODING 183
SWIDTH 24 0
DWIDTH 4 0
BBX 1 1 2 4
BITMAP
80
ENDCHAR

STARTCHAR char184
ENCODING 184
SWIDTH 0 0
DWIDTH 0 0
BBX 3 3 -1 -3
BITMAP
60
E0
40
ENDCHAR

STARTCHAR char186
ENCODING 186
SWIDTH 0 0
DWIDTH 0 0
BBX 9 3 -4 11
BITMAP
7080
FF00
8E00
ENDCHAR

STARTCHAR char187
ENCODING 187
SWIDTH 43 0
DWIDTH 7 0
BBX 6 5 2 2
BITMAP
90
48
28
48
90
ENDCHAR

STARTCHAR char191
ENCODING 191
SWIDTH 61 0
DWIDTH 10 0
BBX 8 10 2 0
BITMAP
1C
1C
08
08
38
48
FF
A9
67
3E
ENDCHAR

STARTCHAR char192
ENCODING 192
SWIDTH 36 0
DWIDTH 16 0
BBX 15 14 3 0
BITMAP
0600
0700
0100
0100
0300
0380
0780
0BC0
0AC0
1160
3FE0
20F0
60F0
F9FC
ENDCHAR

STARTCHAR char193
ENCODING 193
SWIDTH 36 0
DWIDTH 16 0
BBX 15 14 3 0
BITMAP
0180
0100
0100
0100
0300
0380
0780
0BC0
0AC0
1160
3FE0
20F0
60F0
F9FC
ENDCHAR

STARTCHAR char194
ENCODING 194
SWIDTH 36 0
DWIDTH 16 0
BBX 15 14 3 0
BITMAP
0380
05C0
04C0
0100
0300
0380
0780
0BC0
0AC0
11E0
1F60
20F0
60F0
F9FC
ENDCHAR

STARTCHAR char195
ENCODING 195
SWIDTH 36 0
DWIDTH 16 0
BBX 15 14 3 0
BITMAP
0610
1FE0
11C0
0100
0300
0380
0780
0FC0
0AC0
11E0
1F60
20F0
60F0
F9FC
ENDCHAR

STARTCHAR char196
ENCODING 196
SWIDTH 36 0
DWIDTH 16 0
BBX 15 14 3 0
BITMAP
0440
0AC0
0CC0
0100
0300
0380
0780
0FC0
0AC0
11E0
1F60
20F0
20F8
FBFC
ENDCHAR

STARTCHAR char197
ENCODING 197
SWIDTH 36 0
DWIDTH 16 0
BBX 15 14 3 0
BITMAP
0300
0480
0380
0100
0300
0380
0780
0BC0
0AC0
11E0
1F60
20F0
20F0
F1FC
ENDCHAR

STARTCHAR char198
ENCODING 198
SWIDTH 22 0
DWIDTH 24 0
BBX 20 10 4 0
BITMAP
007FF0
01C830
017810
027880
047F80
087980
0FF890
107810
304830
FDFFF0
ENDCHAR

STARTCHAR char199
ENCODING 199
SWIDTH 29 0
DWIDTH 15 0
BBX 12 14 3 -3
BITMAP
0700
1CF0
3830
7810
F010
F000
F000
B010
5010
2820
1EC0
0700
0300
0100
ENDCHAR

STARTCHAR char200
ENCODING 200
SWIDTH 36 0
DWIDTH 16 0
BBX 13 14 3 0
BITMAP
0600
0200
0200
0000
FFF8
2418
3C08
3C40
3FC0
3CC0
3C48
3C08
3C38
FFF8
ENDCHAR

STARTCHAR char201
ENCODING 201
SWIDTH 36 0
DWIDTH 16 0
BBX 13 14 3 0
BITMAP
0180
0300
0200
0000
FFF8
2418
3C08
3C40
3FC0
3CC0
3C48
3C08
3C38
FFF8
ENDCHAR

STARTCHAR char202
ENCODING 202
SWIDTH 36 0
DWIDTH 16 0
BBX 13 14 3 0
BITMAP
0380
0580
05C0
0000
FFF8
2418
3C08
3C40
3FC0
3CC0
3C48
3C08
3C38
FFF8
ENDCHAR

STARTCHAR char203
ENCODING 203
SWIDTH 36 0
DWIDTH 16 0
BBX 13 14 3 0
BITMAP
0480
0DC0
0C80
0000
FFF8
2418
3C08
3C40
3FC0
3CC0
3C48
3C08
3C38
FFF8
ENDCHAR

STARTCHAR char204
ENCODING 204
SWIDTH 61 0
DWIDTH 10 0
BBX 8 14 2 0
BITMAP
30
18
08
00
3F
24
3C
3C
3C
3C
3C
3C
3C
FE
ENDCHAR

STARTCHAR char205
ENCODING 205
SWIDTH 61 0
DWIDTH 10 0
BBX 8 14 2 0
BITMAP
0C
08
08
00
3F
24
3C
3C
3C
3C
3C
3C
3C
FE
ENDCHAR

STARTCHAR char206
ENCODING 206
SWIDTH 61 0
DWIDTH 10 0
BBX 8 14 2 0
BITMAP
1C
2C
26
00
3F
24
3C
3C
3C
3C
3C
3C
3C
FE
ENDCHAR

STARTCHAR char207
ENCODING 207
SWIDTH 61 0
DWIDTH 10 0
BBX 8 14 2 0
BITMAP
22
76
36
00
3F
24
3C
3C
3C
3C
3C
3C
3C
FE
ENDCHAR

STARTCHAR char209
ENCODING 209
SWIDTH 42 0
DWIDTH 17 0
BBX 15 14 3 0
BITMAP
0610
0FE0
10C0
0000
FE3E
3F08
2F88
27C8
23E8
2178
20B8
2058
2028
F818
ENDCHAR

STARTCHAR char210
ENCODING 210
SWIDTH 42 0
DWIDTH 17 0
BBX 14 14 4 0
BITMAP
0E00
0200
0200
0000
3FF0
7878
F078
F07C
F07C
F07C
B07C
5868
2850
1FE0
ENDCHAR

STARTCHAR char211
ENCODING 211
SWIDTH 42 0
DWIDTH 17 0
BBX 14 14 4 0
BITMAP
0180
0300
0200
0000
3FF0
7878
F078
F07C
F07C
F07C
B07C
5868
2850
1FE0
ENDCHAR

STARTCHAR char212
ENCODING 212
SWIDTH 42 0
DWIDTH 17 0
BBX 14 14 4 0
BITMAP
0380
0580
05C0
0700
38E0
4858
7078
F07C
F07C
F07C
B07C
5868
2850
1FE0
ENDCHAR

STARTCHAR char213
ENCODING 213
SWIDTH 42 0
DWIDTH 17 0
BBX 14 14 4 0
BITMAP
0C10
1FE0
11C0
0700
38E0
4858
7078
F07C
F07C
F07C
B07C
5868
2850
1FE0
ENDCHAR

STARTCHAR char214
ENCODING 214
SWIDTH 42 0
DWIDTH 17 0
BBX 14 14 4 0
BITMAP
0480
0CC0
0C80
0000
3FF0
7878
F878
F87C
F87C
F87C
B87C
5868
2850
1FE0
ENDCHAR

STARTCHAR char216
ENCODING 216
SWIDTH 42 0
DWIDTH 17 0
BBX 14 12 4 -1
BITMAP
0010
3FE0
7878
F0F8
F17C
F27C
F47C
B87C
5868
2850
DFE0
4000
ENDCHAR

STARTCHAR char217
ENCODING 217
SWIDTH 36 0
DWIDTH 16 0
BBX 14 14 3 0
BITMAP
0600
0300
0100
0000
FF3C
2408
3C08
3C08
3C08
3C08
3C08
2C08
1430
0FC0
ENDCHAR

STARTCHAR char218
ENCODING 218
SWIDTH 36 0
DWIDTH 16 0
BBX 14 14 3 0
BITMAP
0180
0100
0100
0000
FF3C
2408
3C08
3C08
3C08
3C08
3C08
2C08
1430
0FC0
ENDCHAR

STARTCHAR char219
ENCODING 219
SWIDTH 36 0
DWIDTH 16 0
BBX 14 14 3 0
BITMAP
0380
05C0
04C0
0000
FF3C
2408
3C08
3C08
3C08
3C08
3C08
2C08
1430
0FC0
ENDCHAR

STARTCHAR char220
ENCODING 220
SWIDTH 36 0
DWIDTH 16 0
BBX 14 14 3 0
BITMAP
0240
0760
0260
0000
FF3C
2408
3C08
3C08
3C08
3C08
3C08
2C08
1410
0FE0
ENDCHAR

STARTCHAR char223
ENCODING 223
SWIDTH 10 0
DWIDTH 22 0
BBX 22 9 2 0
BITMAP
3EC3E8
414C18
C09C08
FE97C8
DF8938
3EC7CC
412834
C0F40C
7F8BF8
ENDCHAR

STARTCHAR char224
ENCODING 224
SWIDTH 23 0
DWIDTH 14 0
BBX 13 12 2 0
BITMAP
0600
0200
0200
0200
0600
0700
0D80
1380
12C0
3FC0
2120
FBF8
ENDCHAR

STARTCHAR char225
ENCODING 225
SWIDTH 23 0
DWIDTH 14 0
BBX 13 12 2 0
BITMAP
0300
0300
0200
0200
0600
0700
0D80
1380
12C0
3FC0
2120
FBF8
ENDCHAR

STARTCHAR char226
ENCODING 226
SWIDTH 23 0
DWIDTH 14 0
BBX 13 12 2 0
BITMAP
0300
0780
0580
0200
0600
0700
0D80
0B80
13C0
3EC0
2120
FBF8
ENDCHAR

STARTCHAR char227
ENCODING 227
SWIDTH 23 0
DWIDTH 14 0
BBX 13 12 2 0
BITMAP
0440
1B40
1780
0200
0600
0700
0D80
0B80
13C0
3EC0
2120
FBF8
ENDCHAR

STARTCHAR char228
ENCODING 228
SWIDTH 23 0
DWIDTH 14 0
BBX 13 12 2 0
BITMAP
0880
0D80
0EC0
0200
0200
0700
0D80
0B80
13C0
1EC0
21E0
FBF0
ENDCHAR

STARTCHAR char229
ENCODING 229
SWIDTH 23 0
DWIDTH 14 0
BBX 13 12 2 0
BITMAP
0300
0500
0200
0200
0600
0700
0D80
0B80
13C0
1EC0
21E0
F3F0
ENDCHAR

STARTCHAR char230
ENCODING 230
SWIDTH 60 0
DWIDTH 20 0
BBX 16 9 4 0
BITMAP
03FF
03E3
07E1
0DE5
09FC
11E4
3FE1
6123
E3FF
ENDCHAR

STARTCHAR char231
ENCODING 231
SWIDTH 11 0
DWIDTH 12 0
BBX 10 12 3 -3
BITMAP
1F40
70C0
F040
E040
E000
E000
A040
7080
3F00
0C00
0C00
0800
ENDCHAR

STARTCHAR char232
ENCODING 232
SWIDTH 17 0
DWIDTH 13 0
BBX 10 12 3 0
BITMAP
1800
0C00
0400
FFC0
78C0
7840
7900
7F00
7900
7840
78C0
7FC0
ENDCHAR

STARTCHAR char233
ENCODING 233
SWIDTH 17 0
DWIDTH 13 0
BBX 10 12 3 0
BITMAP
0600
0400
0400
FFC0
78C0
7840
7900
7F00
7900
7840
78C0
7FC0
ENDCHAR

STARTCHAR char234
ENCODING 234
SWIDTH 17 0
DWIDTH 13 0
BBX 10 12 3 0
BITMAP
0E00
0E00
0B00
FFC0
78C0
7840
7900
7F00
7900
7840
4840
FFC0
ENDCHAR

STARTCHAR char235
ENCODING 235
SWIDTH 17 0
DWIDTH 13 0
BBX 10 12 3 0
BITMAP
1A00
1D00
1B00
FFC0
78C0
7840
7940
7F00
7900
7840
4840
FFC0
ENDCHAR

STARTCHAR char236
ENCODING 236
SWIDTH 55 0
DWIDTH 9 0
BBX 7 12 2 0
BITMAP
60
30
10
FE
78
78
78
78
78
78
48
FE
ENDCHAR

STARTCHAR char237
ENCODING 237
SWIDTH 55 0
DWIDTH 9 0
BBX 7 12 2 0
BITMAP
30
20
40
FE
78
78
78
78
78
78
48
FE
ENDCHAR

STARTCHAR char238
ENCODING 238
SWIDTH 55 0
DWIDTH 9 0
BBX 7 12 2 0
BITMAP
30
68
58
FE
78
78
78
78
78
78
78
FE
ENDCHAR

STARTCHAR char239
ENCODING 239
SWIDTH 55 0
DWIDTH 9 0
BBX 7 12 2 0
BITMAP
48
74
4C
FE
78
78
78
78
78
68
78
FE
ENDCHAR

STARTCHAR char241
ENCODING 241
SWIDTH 23 0
DWIDTH 14 0
BBX 12 12 3 0
BITMAP
0800
1E80
2700
F8F0
7C60
7E20
4B20
45A0
42E0
4160
40A0
6060
ENDCHAR

STARTCHAR char242
ENCODING 242
SWIDTH 23 0
DWIDTH 14 0
BBX 12 12 3 0
BITMAP
0C00
0400
0400
0300
3DC0
70E0
F0F0
F0D0
F0F0
90B0
68E0
1F80
ENDCHAR

STARTCHAR char243
ENCODING 243
SWIDTH 23 0
DWIDTH 14 0
BBX 12 12 3 0
BITMAP
0300
0200
0400
0300
3DC0
70E0
F0F0
F0D0
F0F0
90B0
68E0
1F80
ENDCHAR

STARTCHAR char244
ENCODING 244
SWIDTH 23 0
DWIDTH 14 0
BBX 12 12 3 0
BITMAP
0600
0B00
0B80
0300
3DC0
70E0
F0F0
F0D0
F0F0
90B0
68E0
1F80
ENDCHAR

STARTCHAR char245
ENCODING 245
SWIDTH 23 0
DWIDTH 14 0
BBX 12 12 3 0
BITMAP
0800
1EC0
1300
0300
3DC0
70E0
F0F0
F0D0
F0F0
90B0
68E0
1F80
ENDCHAR

STARTCHAR char246
ENCODING 246
SWIDTH 23 0
DWIDTH 14 0
BBX 12 12 3 0
BITMAP
0900
1680
0F80
1F00
31C0
70E0
F0F0
F0D0
B0F0
50A0
70E0
1F80
ENDCHAR

STARTCHAR char247
ENCODING 247
SWIDTH 17 0
DWIDTH 13 0
BBX 12 8 2 2
BITMAP
0600
0600
0000
0000
FFF0
0000
0600
0600
ENDCHAR

STARTCHAR char248
ENCODING 248
SWIDTH 23 0
DWIDTH 14 0
BBX 12 9 3 0
BITMAP
1F20
39C0
70E0
F3F0
F4D0
BCF0
70B0
68E0
DF80
ENDCHAR

STARTCHAR char249
ENCODING 249
SWIDTH 23 0
DWIDTH 14 0
BBX 12 12 3 0
BITMAP
0C00
0400
0400
FCF0
7060
7040
7040
7040
7040
5040
30C0
1F00
ENDCHAR

STARTCHAR char250
ENCODING 250
SWIDTH 23 0
DWIDTH 14 0
BBX 12 12 3 0
BITMAP
0600
0600
0400
FCF0
7060
7040
7040
7040
7040
5040
30C0
1F00
ENDCHAR

STARTCHAR char251
ENCODING 251
SWIDTH 23 0
DWIDTH 14 0
BBX 12 12 3 0
BITMAP
0600
0F00
1300
FCF0
7060
7040
7040
7040
7040
5040
30C0
1F00
ENDCHAR

STARTCHAR char252
ENCODING 252
SWIDTH 23 0
DWIDTH 14 0
BBX 12 11 3 0
BITMAP
0D80
0A80
FCF0
7860
7040
7040
7040
7040
5040
28C0
1F00
ENDCHAR

STARTCHAR char255
ENCODING 255
SWIDTH 23 0
DWIDTH 14 0
BBX 13 12 2 0
BITMAP
0500
0D80
0D80
FFF8
3C60
1C40
1640
0B80
0480
0700
0500
1FC0
ENDCHAR
ENDFONT
